<svg width="112" height="112" viewBox="0 0 112 112" fill="none" xmlns="http://www.w3.org/2000/svg">
<path fill-rule="evenodd" clip-rule="evenodd" d="M60.2247 101.773C59.4266 102.076 58.5731 102.076 57.7749 101.773C54.0967 100.381 42.8811 95.232 34.4376 81.7415C26.0984 68.4178 22.4722 42.8082 22.0028 29.4475C21.9181 27.0367 23.7701 25.082 26.1401 24.9283C30.9934 24.6135 34.3826 24.3273 39.5742 22.3311C45.2049 20.1661 51.7511 14.7768 55.6254 11.2881C57.5326 9.57065 60.4674 9.57065 62.3746 11.2881C66.2489 14.7768 72.7952 20.1661 78.4258 22.3311C83.6174 24.3273 87.0066 24.6135 91.8599 24.9283C94.2299 25.082 96.0819 27.0367 95.9972 29.4475C95.5278 42.8082 91.9016 68.4178 83.5624 81.7415C75.1188 95.232 63.903 100.381 60.2247 101.773Z" fill="white"/>
<path d="M26.1415 24.9078C23.7715 25.0615 21.9181 27.0167 22.0028 29.4282C22.4722 42.7924 26.0983 68.4089 34.4375 81.7362C41.793 93.4913 51.2525 98.9147 56 101.038C56.7031 101.352 57.3008 101.594 57.7754 101.773C58.1745 101.924 58.5872 102 59 102H53.0203L53 102C52.5872 102 52.1745 101.924 51.7754 101.773C48.0971 100.381 36.8811 95.2302 28.4375 81.7362C20.0983 68.4089 16.4722 42.7924 16.0028 29.4282C15.9181 27.0167 17.7715 25.0615 20.1415 24.9078C24.9947 24.5929 28.3834 24.3066 33.5751 22.3099C39.2057 20.1443 45.7515 14.7536 49.6258 11.2639C50.448 10.5234 51.4612 10.1021 52.5008 10H58.502C57.6154 10.0869 56.7464 10.406 56.0004 10.9573C55.8716 11.0525 55.7469 11.1549 55.6258 11.2639C51.7515 14.7536 45.2057 20.1443 39.5751 22.3099C34.3834 24.3066 30.9947 24.5929 26.1415 24.9078Z" fill="#808080"/>
<circle cx="59" cy="95" r="3" fill="#F16436"/>
<circle cx="89" cy="32" r="3" fill="#F16436"/>
<circle cx="29" cy="32" r="3" fill="#F16436"/>
<path opacity="0.68" fill-rule="evenodd" clip-rule="evenodd" d="M59.8275 87.8448C59.2882 88.0517 58.7115 88.0517 58.1723 87.8448C55.687 86.8914 48.1089 83.3654 42.4038 74.1274C36.7692 65.0035 34.3191 47.4665 34.0019 38.3173C33.9447 36.6664 35.196 35.3279 36.7974 35.2226C40.0766 35.0071 42.3666 34.8111 45.8744 33.4441C49.679 31.9616 54.1021 28.2711 56.7199 25.882C58.0085 24.706 59.9915 24.706 61.2802 25.882C63.8979 28.2711 68.3211 31.9616 72.1256 33.4441C75.6334 34.8111 77.9234 35.0071 81.2026 35.2226C82.804 35.3279 84.0553 36.6664 83.9981 38.3173C83.6809 47.4665 81.2308 65.0035 75.5962 74.1274C69.8911 83.3654 62.3129 86.8914 59.8275 87.8448Z" fill="#F16436"/>
<path d="M59.5727 25.1288C58.4923 24.8182 57.2869 25.0693 56.4086 25.882C53.8267 28.2711 49.4642 31.9616 45.7118 33.4441C42.252 34.8111 39.9934 35.0071 36.7591 35.2226C35.1797 35.3279 33.9454 36.6664 34.0019 38.3173C34.3147 47.4665 36.7312 65.0035 42.2887 74.1274C47.9156 83.3654 55.3899 86.8914 57.8411 87.8448C58.3183 88.0304 58.8252 88.0495 59.3084 87.9021C60.2311 82.9128 64.7151 55.8173 59.5727 25.1288Z" fill="#F16436"/>
<circle cx="59" cy="17" r="3" fill="#F16436"/>
</svg>
