<svg width="112" height="112" viewBox="0 0 112 112" fill="none" xmlns="http://www.w3.org/2000/svg">
<rect x="4" y="19" width="104" height="74" rx="6" fill="white"/>
<rect x="26" y="75" width="74" height="10" rx="4" fill="#B2B2B2"/>
<rect x="26" y="61" width="74" height="10" rx="4" fill="#B2B2B2"/>
<path d="M4 25C4 21.6863 6.68629 19 10 19H18V93H10C6.68629 93 4 90.3137 4 87V25Z" fill="#F16436"/>
<rect x="8" y="50" width="6" height="6" rx="3" fill="white"/>
<rect x="26" y="47" width="74" height="10" rx="4" fill="#B2B2B2"/>
<rect x="8" y="38" width="6" height="6" rx="3" fill="white"/>
<rect x="44" y="37" width="15" height="6" rx="3" fill="#B2B2B2"/>
<rect x="26" y="37" width="15" height="6" rx="3" fill="#B2B2B2"/>
<rect x="26" y="27" width="73" height="6" rx="3" fill="#B2B2B2"/>
<rect x="8" y="26" width="6" height="6" rx="3" fill="white"/>
</svg>
