<svg width="112" height="112" viewBox="0 0 112 112" fill="none" xmlns="http://www.w3.org/2000/svg">
<g clip-path="url(#clip0)">
<path fill-rule="evenodd" clip-rule="evenodd" d="M48.955 65.6395L58.5264 63.2036C61.05 62.5613 63.2961 61.1156 64.9259 59.0847L67.3293 56.0896L64.5308 56.2057C63.1653 56.2624 62.3682 54.6852 63.2235 53.6194C63.5229 53.2462 63.9744 53.0275 64.4529 53.024L69.8216 52.9839L105.633 8.35697L87.9257 11.369C80.5348 12.6263 73.8529 16.5187 69.1144 22.3207L70.2429 28.6352C70.3153 29.0406 70.209 29.4576 69.9512 29.7788C69.199 30.7162 67.6957 30.3599 67.4441 29.1846L66.6358 25.4076L63.8016 28.9395L64.7726 34.3725C64.845 34.7779 64.7387 35.1949 64.4809 35.5161C63.7287 36.4535 62.2254 36.0972 61.9739 34.9219L61.3479 31.9972L54.6848 40.3005C52.0733 43.5548 50.4905 47.5134 50.1383 51.6711L48.955 65.6395Z" fill="#F16436"/>
<path d="M73.6787 29.6212C74.2809 28.8708 75.3773 28.7507 76.1277 29.3528C76.8781 29.955 76.9983 31.0515 76.3961 31.8019L31.8935 87.2592L25.3411 89.8575L73.6787 29.6212Z" fill="#4D4D4D"/>
<path d="M19 84C19 82.3431 20.3431 81 22 81H39C40.6569 81 42 82.3431 42 84V88H19V84Z" fill="#B2B2B2"/>
<path d="M13 90C13 88.8954 13.8954 88 15 88H46C47.1046 88 48 88.8954 48 90V98C48 99.1046 47.1046 100 46 100H15C13.8954 100 13 99.1046 13 98V90Z" fill="#E5E5E5"/>
<path d="M16 93H44V94C44 95.6569 42.6569 97 41 97H19C17.3431 97 16 95.6569 16 94V93Z" fill="#F16436"/>
<path d="M70.525 77.4442C70.6758 76.9858 71.3242 76.9858 71.475 77.4442L72.406 80.2752C72.4556 80.426 72.574 80.5444 72.7248 80.594L75.5558 81.525C76.0142 81.6758 76.0142 82.3242 75.5558 82.475L72.7248 83.406C72.574 83.4556 72.4556 83.574 72.406 83.7248L71.475 86.5558C71.3242 87.0142 70.6758 87.0142 70.525 86.5558L69.594 83.7248C69.5444 83.574 69.426 83.4556 69.2752 83.406L66.4442 82.475C65.9858 82.3242 65.9858 81.6758 66.4442 81.525L69.2752 80.594C69.426 80.5444 69.5444 80.426 69.594 80.2752L70.525 77.4442Z" fill="white"/>
<path d="M90.025 52.4442C90.1758 51.9858 90.8242 51.9858 90.975 52.4442L93.5147 60.1665C93.5643 60.3174 93.6826 60.4357 93.8335 60.4853L101.556 63.025C102.014 63.1758 102.014 63.8242 101.556 63.975L93.8335 66.5147C93.6826 66.5643 93.5643 66.6826 93.5147 66.8335L90.975 74.5558C90.8242 75.0142 90.1758 75.0142 90.025 74.5558L87.4853 66.8335C87.4357 66.6826 87.3174 66.5643 87.1665 66.5147L79.4442 63.975C78.9858 63.8242 78.9858 63.1758 79.4442 63.025L87.1665 60.4853C87.3174 60.4357 87.4357 60.3174 87.4853 60.1665L90.025 52.4442Z" fill="white"/>
</g>
<defs>
<clipPath id="clip0">
<rect width="112" height="112" fill="white"/>
</clipPath>
</defs>
</svg>
