<svg width="112" height="112" viewBox="0 0 112 112" fill="none" xmlns="http://www.w3.org/2000/svg">
<rect x="5" y="19" width="102" height="74" rx="6" fill="#262626"/>
<path d="M107 33H5V24.8457C5 21.6172 7.45914 19 10.4926 19H101.507C104.541 19 107 21.6172 107 24.8457V33Z" fill="#4D4D4D"/>
<circle cx="100.5" cy="25.5" r="2.5" fill="#999999"/>
<circle cx="92.5" cy="25.5" r="2.5" fill="#999999"/>
<circle cx="84.5" cy="25.5" r="2.5" fill="#999999"/>
<rect x="9" y="23" width="55" height="5" rx="2.5" fill="#262626"/>
<path d="M53.7614 66.2145C54.0305 66.1114 54.2996 65.9568 54.461 65.8537L54.7839 63.2247H54.2458C54.1919 63.6886 54.0843 64.101 53.9229 64.3587C53.7614 64.6165 53.5461 64.8742 53.277 65.0289C53.008 65.2351 52.685 65.3382 52.3621 65.3897C52.0392 65.4413 51.6625 65.4928 51.232 65.4928C50.6938 65.4928 50.1556 65.3897 49.6712 65.1835C49.1331 64.9773 48.7025 64.7196 48.3258 64.3587C47.9491 63.9979 47.6262 63.5855 47.4109 63.07C47.1418 62.5545 47.0342 62.039 46.9804 61.4204C46.9265 60.8534 47.0342 60.2863 47.1956 59.7708C47.3571 59.2038 47.6262 58.7914 47.9491 58.379C48.272 58.0182 48.7025 57.7089 49.1869 57.4511C49.6712 57.1934 50.2094 57.0903 50.8014 57.0903C51.6087 57.0903 52.3083 57.2449 52.9003 57.5542C53.4923 57.8635 53.869 58.3275 54.0843 59.0492H54.5687L54.4072 56.317C54.2458 56.4201 54.0305 56.4717 53.8152 56.4201C53.5999 56.3686 53.3847 56.317 53.0618 56.2139C52.7927 56.1108 52.416 56.0077 52.0392 55.9046C51.6087 55.8015 51.1243 55.75 50.5861 55.75C49.6712 55.75 48.864 55.9046 48.0567 56.2139C47.2494 56.5232 46.6036 56.9356 46.0116 57.4511C45.4196 57.9666 44.9891 58.5852 44.6662 59.2554C44.3433 59.9255 44.1818 60.6472 44.1818 61.4204C44.1818 62.2452 44.3433 62.9669 44.6662 63.637C44.9891 64.3072 45.4196 64.8742 46.0116 65.3382C46.6036 65.8021 47.3033 66.163 48.0567 66.4207C48.8102 66.6785 49.6712 66.8331 50.5323 66.8331C50.8552 66.8331 51.2319 66.7816 51.6087 66.73C51.9854 66.6785 52.3621 66.6269 52.7389 66.5238C53.1156 66.4207 53.4385 66.3176 53.7614 66.2145Z" fill="#F16436"/>
<path d="M88.7462 64.1528V61.4722H90.7375C90.8989 61.4722 91.0604 61.5753 91.168 61.7299C91.2757 61.8846 91.3833 62.0392 91.4371 62.1939H91.5986C91.8677 61.5753 92.2982 61.1629 92.944 60.9052V60.699C92.2982 60.4412 91.8677 60.0288 91.5986 59.4102H91.3833C91.3295 59.5649 91.2219 59.7195 91.1142 59.8742C91.0066 60.0288 90.8451 60.1319 90.6837 60.1319H88.7462V57.4513L91.5986 57.5029C91.7502 57.5029 91.8848 57.5193 92.0022 57.5336C92.0932 57.5446 92.1739 57.5544 92.2444 57.5544C92.4058 57.5544 92.5135 57.606 92.6211 57.7091C92.7287 57.8122 92.8364 57.9153 92.8902 58.0699C92.9064 58.1166 92.9276 58.1679 92.9506 58.2239C93.004 58.3535 93.068 58.5088 93.1055 58.6885H93.6437L93.2669 56.1626H85.8401C85.715 56.1327 85.5535 56.1201 85.3557 56.1047C85.2131 56.0937 85.0517 56.0811 84.8713 56.0595L84.5484 56.008V56.6266H84.8175C85.4095 56.6781 85.7862 56.7812 85.9477 56.9874C86.1091 57.1936 86.163 57.5029 86.163 57.9668V64.6683C86.163 65.1322 86.1091 65.4415 85.9477 65.6477C85.7862 65.8539 85.4095 65.957 84.8175 66.0085H84.5484V66.5756H84.8713C84.9867 66.5618 85.0943 66.548 85.1942 66.5351C85.4672 66.5001 85.6825 66.4725 85.8401 66.4725C86.0553 66.4209 86.3244 66.4209 86.5397 66.4209H91.7062C92.1368 66.4725 92.5135 66.4725 92.7826 66.4725H93.2669C93.2961 66.3888 93.3094 66.305 93.3241 66.2131C93.3365 66.1353 93.3499 66.0515 93.3746 65.957C93.4284 65.7508 93.4822 65.5446 93.536 65.2868C93.5898 65.0291 93.6437 64.7714 93.7513 64.5136C93.8216 64.3452 93.9149 64.1768 94.0161 63.9941C94.0699 63.8971 94.1259 63.7961 94.1818 63.6888L93.536 63.7404C93.4416 63.8534 93.3679 63.9565 93.3013 64.0497C93.216 64.169 93.1423 64.2721 93.0517 64.359C92.944 64.5136 92.7826 64.6683 92.6211 64.7714C92.4597 64.8744 92.2982 64.926 92.0829 64.9775C91.8677 65.0291 91.5986 65.0291 91.2757 65.0291H89.5535C89.1768 65.0291 88.9077 65.0291 88.8539 64.926C88.8 64.8229 88.7462 64.5652 88.7462 64.1528Z" fill="#F16436"/>
<path d="M63.0735 63.2588H63.3426C63.6655 62.5371 64.2036 62.0216 64.9571 61.7123V61.4546C64.2036 61.0937 63.6655 60.5783 63.3426 59.8566H63.0735C62.6967 60.5783 62.1586 61.1453 61.4051 61.4546V61.7123C62.1586 62.0216 62.7506 62.5371 63.0735 63.2588Z" fill="#F16436"/>
<path fill-rule="evenodd" clip-rule="evenodd" d="M69.0472 63.6197C69.3701 62.9495 69.5316 62.2278 69.5316 61.4546C69.5316 60.6298 69.3701 59.9081 69.1011 59.1864C68.7781 58.5163 68.3476 57.9492 67.7556 57.4853C67.2174 57.0214 66.5178 56.6605 65.7644 56.4028C65.0109 56.145 64.1498 56.0419 63.2887 56.0419C62.3738 56.0419 61.5666 56.1966 60.7593 56.5059C59.952 56.8152 59.3062 57.2276 58.7142 57.743C58.1222 58.2585 57.6917 58.8771 57.3688 59.5473C57.0459 60.2174 56.8844 60.9391 56.8844 61.7123C56.8844 62.5371 57.0459 63.2588 57.3688 63.9289C57.6917 64.5991 58.1222 65.1661 58.7142 65.6301C59.3062 66.094 60.0059 66.4549 60.7593 66.7126C61.5128 66.9704 62.3738 67.125 63.2349 67.125C64.1498 67.125 65.0109 66.9704 65.7644 66.6611C66.5178 66.3518 67.2174 65.9394 67.7556 65.4239C68.2938 64.9084 68.7243 64.2898 69.0472 63.6197ZM66.464 60.0628C66.6792 60.5267 66.7869 61.0422 66.8407 61.6092C66.8945 62.1762 66.8407 62.6917 66.7869 63.2072C66.6254 63.7227 66.4102 64.1351 66.1411 64.496C65.8182 64.8568 65.4953 65.1661 65.0647 65.3723C64.6342 65.5785 64.1498 65.6816 63.6116 65.6816C63.0196 65.6816 62.5353 65.5785 62.0509 65.3723C61.5666 65.1661 61.1898 64.8568 60.8131 64.496C60.4364 64.1351 60.1673 63.6712 59.952 63.2073C59.7368 62.7433 59.5753 62.2278 59.5215 61.6608C59.4677 61.0937 59.4677 60.6298 59.6291 60.1143C59.7906 59.5988 60.0059 59.1864 60.2749 58.8256C60.5978 58.4647 60.9208 58.1554 61.3513 57.9492C61.7818 57.743 62.2662 57.6399 62.8044 57.6399C63.3964 57.6399 63.8807 57.6915 64.3651 57.8977C64.8494 58.1039 65.2262 58.4132 65.6029 58.774C65.9796 59.1349 66.2487 59.5988 66.464 60.0628Z" fill="#F16436"/>
<path fill-rule="evenodd" clip-rule="evenodd" d="M79.2212 61.3691C79.5441 61.7815 79.867 62.2454 80.1899 62.7094C80.5128 63.1732 80.8358 63.6373 81.1048 64.0497C81.2394 64.2559 81.3739 64.4492 81.495 64.6231C81.6161 64.7971 81.7237 64.9518 81.8045 65.0806C82.0197 65.3899 82.1274 65.5446 82.1812 65.5961C82.235 65.6992 82.3426 65.8539 82.4503 66.0085L82.7732 66.4725C82.8808 66.6271 82.9346 66.7302 82.9884 66.8333C83.0423 66.9364 83.0423 66.988 82.9884 67.0395C82.8808 67.1426 82.7194 67.1426 82.5041 67.0911C82.2888 66.988 81.9659 66.7818 81.5354 66.4209L76.4765 62.0908C76.2765 62.0668 76.0882 62.054 75.9114 62.042C75.7076 62.0281 75.5192 62.0153 75.3463 61.9877V64.6167C75.3463 65.0806 75.4001 65.3899 75.5616 65.5961C75.723 65.8023 76.0998 65.9054 76.6918 66.0085H76.9609L77.0147 66.524H76.6918C76.5114 66.5024 76.35 66.4899 76.2074 66.4788C76.0096 66.4634 75.8481 66.4509 75.723 66.4209C75.6214 66.4209 75.5198 66.4094 75.4125 66.3973C75.2925 66.3837 75.1655 66.3694 75.0234 66.3694H73.1398C72.9245 66.3694 72.6554 66.3694 72.4402 66.4209C72.2826 66.4209 72.0673 66.4486 71.7944 66.4836C71.6945 66.4964 71.5868 66.5102 71.4714 66.524H71.0947V66.0085H71.3638C71.9558 65.957 72.3325 65.8023 72.494 65.5961C72.6554 65.3899 72.7092 65.0806 72.7092 64.6167V57.9153C72.7092 57.4513 72.6554 57.1421 72.494 56.9359C72.3325 56.7297 71.9558 56.6266 71.3638 56.5235H71.0947V56.008L71.4714 56.0595C71.6518 56.0811 71.8132 56.0937 71.9558 56.1047C72.1536 56.1201 72.315 56.1327 72.4402 56.1626H77.1761C78.4139 56.1626 79.3827 56.4204 80.0823 56.9359C80.7819 57.4513 81.1048 58.0699 81.1048 58.7916C81.1048 59.3587 80.9434 59.9257 80.6205 60.3897C80.3423 60.7893 79.8646 61.0359 79.4279 61.2613C79.3577 61.2976 79.2883 61.3334 79.2212 61.3691ZM76.1536 61.2144C76.7456 61.2144 77.2299 61.0082 77.6605 60.6474C78.091 60.2866 78.3063 59.7195 78.3063 59.0494C78.3063 58.5339 78.1448 58.1215 77.8219 57.7091C77.499 57.2967 77.0147 57.0905 76.315 57.0905C75.9921 57.0905 75.723 57.0905 75.5616 57.1936C75.3463 57.2451 75.2925 57.3998 75.2925 57.6575V61.1629C75.723 61.2144 75.9921 61.2144 76.1536 61.2144Z" fill="#F16436"/>
<path d="M27.6505 66.4901C27.9267 66.3843 28.2029 66.2256 28.3686 66.1198L28.7 63.4215H28.1476C28.0924 63.8977 27.9819 64.3209 27.8162 64.5855C27.6505 64.85 27.4295 65.1145 27.1534 65.2733C26.8772 65.4849 26.5457 65.5907 26.2143 65.6436C25.8829 65.6965 25.4962 65.7494 25.0543 65.7494C24.5019 65.7494 23.9496 65.6436 23.4524 65.432C22.9001 65.2203 22.4581 64.9558 22.0715 64.5855C21.6848 64.2151 21.3534 63.7919 21.1324 63.2628C20.8563 62.7337 20.7458 62.2047 20.6905 61.5698C20.6353 60.9878 20.7458 60.4058 20.9115 59.8767C21.0772 59.2948 21.3534 58.8715 21.6848 58.4483C22.0162 58.0779 22.4581 57.7605 22.9553 57.4959C23.4524 57.2314 24.0048 57.1256 24.6124 57.1256C25.441 57.1256 26.1591 57.2843 26.7667 57.6017C27.3743 57.9192 27.761 58.3953 27.9819 59.136H28.4791L28.3134 56.332C28.1476 56.4378 27.9267 56.4907 27.7057 56.4378C27.4848 56.3849 27.2638 56.332 26.9324 56.2262C26.6562 56.1203 26.2696 56.0145 25.8829 55.9087C25.441 55.8029 24.9438 55.75 24.3915 55.75C23.4524 55.75 22.6239 55.9087 21.7953 56.2262C20.9667 56.5436 20.3039 56.9669 19.6963 57.4959C19.0886 58.025 18.6467 58.6599 18.3153 59.3477C17.9839 60.0355 17.8182 60.7762 17.8182 61.5698C17.8182 62.4163 17.9839 63.157 18.3153 63.8448C18.6467 64.5326 19.0886 65.1145 19.6963 65.5907C20.3039 66.0669 21.022 66.4372 21.7953 66.7017C22.5686 66.9663 23.4524 67.125 24.3362 67.125C24.6677 67.125 25.0543 67.0721 25.441 67.0192C25.8276 66.9663 26.2143 66.9134 26.601 66.8076C26.9876 66.7017 27.3191 66.5959 27.6505 66.4901Z" fill="white"/>
<path d="M36.955 66.2256C36.3474 66.1198 35.9607 66.014 35.795 65.8023C35.6845 65.5907 35.574 65.2733 35.5188 64.85V61.5698H37.5074C37.6731 61.5698 37.8388 61.6756 37.9493 61.8343C38.0597 61.993 38.1702 62.1517 38.2255 62.3105H38.4464C38.7226 61.6756 39.1645 61.2523 39.8274 60.9878V60.7762C39.1645 60.5116 38.7226 60.0884 38.4464 59.4535H38.2255C38.1702 59.6122 38.0597 59.7709 37.9493 59.9297C37.8388 60.0884 37.6731 60.1942 37.5074 60.1942H35.5188V57.443L38.4464 57.4959C38.602 57.4959 38.7401 57.5127 38.8607 57.5274C38.9541 57.5388 39.0369 57.5488 39.1093 57.5488C39.275 57.5488 39.3855 57.6017 39.4959 57.7076C39.6064 57.8134 39.7169 57.9192 39.7721 58.0779C39.7888 58.126 39.8106 58.1789 39.8344 58.2366C39.8892 58.3696 39.9546 58.5284 39.9931 58.7128H40.5455L40.1588 56.1204H32.536C32.4076 56.0896 32.2419 56.0767 32.0388 56.061C31.8925 56.0496 31.7268 56.0367 31.5417 56.0145L31.2103 55.9616V56.5965H31.4865C32.0941 56.6494 32.4807 56.7552 32.6464 56.9669C32.8122 57.1785 32.8674 57.4959 32.8674 57.9721V64.7971C32.8674 65.2733 32.8122 65.5907 32.6464 65.8023C32.4807 66.014 32.0941 66.1727 31.4865 66.2256H31.2103V66.8076H31.5969C31.7153 66.7934 31.8258 66.7792 31.9284 66.766C32.2085 66.7301 32.4295 66.7017 32.5912 66.7017C32.8122 66.6488 33.0883 66.6488 33.3093 66.6488H35.2426C35.3884 66.6488 35.5188 66.6636 35.6419 66.6775C35.7521 66.69 35.8564 66.7017 35.9607 66.7017C36.0891 66.7325 36.2548 66.7454 36.4579 66.7612C36.6042 66.7725 36.7699 66.7854 36.955 66.8076H37.2864L37.2312 66.2256H36.955Z" fill="white"/>
</svg>
