<svg width="112" height="112" viewBox="0 0 112 112" fill="none" xmlns="http://www.w3.org/2000/svg">
<rect x="5" y="19" width="102" height="74" rx="6" fill="white"/>
<path fill-rule="evenodd" clip-rule="evenodd" d="M56 81C65.9411 81 74 72.9411 74 63C74 53.0589 65.9411 45 56 45C46.0589 45 38 53.0589 38 63C38 72.9411 46.0589 81 56 81ZM60.7114 76.6116C65.8052 74.8487 69.6018 70.3073 70.2886 64.8H63.1644C62.9775 69.5066 62.0654 73.6799 60.7114 76.6116ZM51.2886 49.3884C46.1948 51.1512 42.3982 55.6927 41.7114 61.2H48.8356C49.0225 56.4934 49.9346 52.3201 51.2886 49.3884ZM52.4386 64.8C52.6057 68.67 53.3016 72.0166 54.2513 74.3909C54.8024 75.7686 55.3686 76.6419 55.813 77.1119C55.8856 77.1887 55.948 77.2479 56 77.2933C56.052 77.2479 56.1144 77.1887 56.187 77.1119C56.6314 76.6419 57.1976 75.7686 57.7487 74.3909C58.6984 72.0166 59.3943 68.67 59.5614 64.8L52.4386 64.8ZM48.8356 64.8C49.0225 69.5066 49.9346 73.6799 51.2886 76.6116C46.1948 74.8487 42.3982 70.3073 41.7114 64.8H48.8356ZM59.5614 61.2L52.4386 61.2C52.6057 57.33 53.3016 53.9834 54.2513 51.6091C54.8024 50.2314 55.3686 49.3581 55.813 48.8881C55.8856 48.8113 55.948 48.7521 56 48.7067C56.052 48.7521 56.1144 48.8113 56.187 48.8881C56.6314 49.3581 57.1976 50.2314 57.7487 51.6091C58.6984 53.9834 59.3943 57.33 59.5614 61.2ZM63.1644 61.2C62.9775 56.4934 62.0654 52.3201 60.7114 49.3884C65.8052 51.1512 69.6018 55.6927 70.2886 61.2H63.1644Z" fill="#F16436"/>
<path d="M107 33H5V24.8457C5 21.6172 7.45914 19 10.4926 19H101.507C104.541 19 107 21.6172 107 24.8457V33Z" fill="#CCCCCC"/>
<circle cx="100.5" cy="25.5" r="2.5" fill="#808080"/>
<circle cx="92.5" cy="25.5" r="2.5" fill="#808080"/>
<circle cx="84.5" cy="25.5" r="2.5" fill="#808080"/>
<rect x="9" y="23" width="55" height="5" rx="2.5" fill="#999999"/>
</svg>
